Coordinates
version=1
nRows=19
nColumns=36
inDegrees=yes

Units are S.I. units (second, meters, Newtons, ...)
If the header above contains a line with 'inDegrees', this indicates whether rotational values are in degrees (yes) or radians (no).

endheader
time	pelvis_tilt	pelvis_list	pelvis_rotation	pelvis_tx	pelvis_ty	pelvis_tz	hip_flexion_r	hip_adduction_r	hip_rotation_r	knee_angle_r	knee_angle_r_beta	ankle_angle_r	subtalar_angle_r	mtp_angle_r	hip_flexion_l	hip_adduction_l	hip_rotation_l	knee_angle_l	knee_angle_l_beta	ankle_angle_l	subtalar_angle_l	mtp_angle_l	lumbar_extension	lumbar_bending	lumbar_rotation	arm_flex_r	arm_add_r	arm_rot_r	elbow_flex_r	pro_sup_r	arm_flex_l	arm_add_l	arm_rot_l	elbow_flex_l	pro_sup_l
      1.50833330	      3.84889523	     -2.64756317	     -4.60599394	     -0.95317432	      1.25441963	     -0.11678038	     -0.76460298	     -1.05359080	      7.79775702	     12.08553789	      0.21093243	      1.49588334	    -22.17071822	     -7.49999987	     -9.18025475	     -0.60163606	     10.59072267	      0.54079398	      0.00943864	      3.92061950	    -22.91021756	     -7.49999987	    -19.37303731	      2.13526460	      6.78070831	     11.52988059	     -2.44036570	     11.32191024	     23.44703610	     84.74615405	     10.19998615	     -0.97459275	     18.43046496	     20.53233358	     61.85007379
      1.51250000	      3.83084188	     -2.63748291	     -4.56725818	     -0.95300657	      1.25109172	     -0.11670940	     -0.73393622	     -1.06802602	      7.80174089	     12.10662107	      0.21130040	      1.54823966	    -22.18246821	     -7.49999987	     -9.11231000	     -0.59529465	     10.56330325	      0.57691909	      0.01006914	      3.97322160	    -22.92167775	     -7.49999987	    -19.38506929	      2.14660711	      6.77114914	     11.53734410	     -2.43206993	     11.33080581	     23.48053820	     84.74264579	     10.22246643	     -0.99478262	     18.43440302	     20.56571982	     61.85146517
      1.51666670	      3.68510757	     -2.59020212	     -4.58709126	     -0.95308419	      1.25483474	     -0.11662597	     -0.45117858	     -1.05873542	      8.01396818	     12.40605601	      0.21652652	      1.48711268	    -22.85537639	     -7.49999987	     -8.98605758	     -0.58189238	     10.73953546	      0.57853357	      0.01009732	      3.84800600	    -23.12527434	     -7.49999987	    -19.16329981	      2.10519911	      6.66769717	     11.49742774	     -2.38692938	     10.81039808	     23.75183703	     90.86798298	     10.20825560	     -1.22753997	     19.58390223	     20.79572155	     62.98941845
      1.52083330	      3.61332264	     -2.62724169	     -4.54300053	     -0.95938313	      1.25572311	     -0.11173566	     -0.34275187	     -0.91156072	      7.99901957	     12.37438019	      0.21597368	      1.55042167	    -22.89635987	     -7.49999987	     -8.83221035	     -0.68500009	     10.83080365	      0.56861705	      0.00992424	      3.84473327	    -23.09331911	     -7.49999987	    -19.19380343	      2.03929417	      6.71533659	     11.62877049	     -2.28139048	     10.83307522	     23.80626294	     90.87162195	     10.39809196	     -1.32443578	     19.57118322	     20.83293485	     62.99179048
      1.52500000	      3.61249788	     -2.58270384	     -4.39937990	     -0.95279273	      1.25872162	     -0.11665423	     -0.32665410	     -0.92598029	      8.07869326	     12.36157842	      0.21575024	      1.52532342	    -22.86957782	     -7.49999987	     -8.79595014	     -0.69305888	     10.82903924	      0.58941645	      0.01028726	      3.81059160	    -23.08305415	     -7.49999987	    -19.21270166	      2.02413560	      6.67330434	     11.57664895	     -2.27064405	     10.84622479	     23.79390886	     90.87370735	     10.43721012	     -1.31636102	     19.58063175	     20.85330313	     62.99654546
      1.52916670	      3.22489533	     -2.51540281	     -4.32072412	     -0.95249902	      1.24698568	     -0.11641951	      0.11651296	     -0.96315826	      8.20506980	     12.37524404	      0.21598875	      1.44349345	    -23.34854739	     -7.49999987	     -8.34805702	     -0.65743625	     11.01766466	      0.64707421	      0.01129358	      3.77895232	    -23.54247931	     -7.49999987	    -18.72447200	      2.00237324	      6.53256512	     11.42325337	     -2.32305386	     11.90785154	     23.87661501	     88.96039663	     10.31085609	     -1.50494205	     20.15051724	     21.13080508	     63.00437625
      1.53333330	      3.21292830	     -2.49261359	     -4.27018397	     -0.95256319	      1.25119819	     -0.11652081	      0.10396301	     -1.00371921	      8.18886547	     12.41619099	      0.21670341	      1.44990914	    -23.36867039	     -7.49999987	     -8.35395855	     -0.64429342	     10.98041557	      0.64402689	      0.01124039	      3.80163968	    -23.57980314	     -7.49999987	    -18.69962322	      2.01123416	      6.46055714	     11.39752293	     -2.30712392	     11.91993464	     23.88308517	     88.96984389	     10.36596638	     -1.43713784	     20.17107411	     21.16592952	     63.01247193
      1.53750000	      2.95089732	     -2.45559732	     -4.31425710	     -0.95862919	      1.25942405	     -0.11172968	      0.51721012	     -0.95532060	      8.23867548	     12.36431715	      0.21579804	      1.45286445	    -23.16290245	     -7.49999987	     -8.00921585	     -0.66721925	     10.90315394	      0.66724542	      0.01164563	      3.74168914	    -23.70952688	     -7.49999987	    -18.51179576	      1.91704670	      6.39164534	     11.51639514	     -2.20778184	     12.07032709	     23.90096931	     89.01147627	     10.40987236	     -1.57194514	     20.30889626	     21.15273738	     63.08810143
      1.54166670	      2.91901242	     -2.39516552	     -4.23838168	     -0.95203785	      1.25839299	     -0.11666112	      0.47893760	     -1.01371444	      8.42851230	     12.12547962	      0.21162954	      1.38733531	    -23.00268404	     -7.49999987	     -7.95873453	     -0.62127387	     10.88525441	      0.67349212	      0.01175465	      3.52419053	    -23.66083236	     -7.49999987	    -18.48285364	      1.86219752	      6.28004532	     11.47478791	     -2.17676430	     12.14587639	     23.91869569	     89.05668226	     10.43357152	     -1.56702907	     20.40619245	     21.22784352	     63.13565611
      1.54583330	      2.85321461	     -2.38435293	     -4.25651743	     -0.95182528	      1.25822675	     -0.11683207	      0.48319727	     -1.07346629	      8.37447582	     11.94681181	      0.20851120	      1.37497948	    -22.75995678	     -7.49999987	     -7.89618710	     -0.60047879	     10.79233432	      0.63123863	      0.01101719	      3.43635419	    -23.79752760	     -7.49999987	    -18.43903651	      1.93632122	      6.18600783	     11.50247483	     -2.30594569	     12.90147101	     23.92111354	     89.95716931	     10.41498265	     -1.73396316	     21.81244346	     21.38183930	     64.94432581
      1.55000000	      2.98800008	     -2.37585584	     -4.26960943	     -0.95224601	      1.25413477	     -0.11672373	      0.28508484	     -1.16133365	      8.39633406	     11.84996237	      0.20682086	      1.06433656	    -22.91835974	     -7.49999987	     -8.06645266	     -0.54098703	     10.77373651	      0.63179467	      0.01102690	      3.28607021	    -23.96706954	     -7.49999987	    -18.66861255	      1.95711492	      6.02424893	     11.58254405	     -2.28982484	     13.06876306	     23.96129301	     89.06328891	     10.45904718	     -1.74090618	     21.54177033	     21.60505996	     64.87056926
      1.55416670	      2.98440785	     -2.32406842	     -4.31290050	     -0.95177336	      1.25820777	     -0.11675493	      0.23747950	     -1.28222074	      8.31422835	     11.80853781	      0.20609786	      0.83088335	    -22.84896447	     -7.49999987	     -8.11979962	     -0.45136406	     10.71124316	      0.62543625	      0.01091592	      3.19087052	    -23.96622838	     -7.49999987	    -18.68257363	      1.93568753	      6.01459349	     11.56833329	     -2.29635591	     12.81684878	     23.93298869	     90.50934510	     10.59621131	     -1.80849399	     22.41814812	     21.47908865	     65.99863529
      1.55833330	      3.02122210	     -2.27749352	     -4.29660571	     -0.95194093	      1.25369865	     -0.11630635	      0.22152436	     -1.37884641	      8.26649631	     11.91493410	      0.20795483	      0.80688135	    -22.92476656	     -7.49999987	     -8.16972329	     -0.36500214	     10.74783187	      0.62135707	      0.01084473	      3.31259784	    -23.96422515	     -7.49999987	    -18.81358627	      1.93091791	      5.83487975	     11.67213319	     -2.31523814	     12.93710243	     24.11222765	     89.44545318	     10.57246621	     -1.85670800	     22.17340249	     21.69927767	     65.81104908
      1.56250000	      2.98969767	     -2.28638331	     -4.28395436	     -0.95155075	      1.25804724	     -0.11654365	      0.22500250	     -1.37170405	      8.26337071	     11.92057905	      0.20805335	      0.80362264	    -22.92358968	     -7.49999987	     -8.18527715	     -0.34029778	     10.75181658	      0.62352597	      0.01088258	      3.31006752	    -23.96083337	     -7.49999987	    -18.80954327	      1.93048817	      5.83233932	     11.67714117	     -2.31690798	     12.93688256	     24.11348031	     89.44554624	     10.57742307	     -1.85494479	     22.17439091	     21.70077507	     65.81154307
      1.56666670	      3.18253876	     -2.20817430	     -4.01328762	     -0.95203762	      1.25750770	     -0.11672866	      0.02206621	     -1.50941995	      7.84812897	     12.00888177	      0.20959453	      0.73756700	    -22.90712337	     -7.49999987	     -8.34198439	     -0.22992165	     11.08565299	      0.61168870	      0.01067598	      3.37280440	    -23.65827053	     -7.49999987	    -19.09770452	      1.91202460	      5.48677660	     11.81386481	     -2.28166824	     12.93536561	     24.09937338	     90.41330281	     10.92447082	     -2.04291378	     23.73579029	     21.63508263	     67.41482296
      1.57083330	      3.17331262	     -2.21071928	     -4.01417086	     -0.95186172	      1.26535167	     -0.11711984	      0.01979739	     -1.55074929	      7.70277799	     11.93988426	      0.20839029	      0.59804676	    -22.82017722	     -7.49999987	     -8.32136740	     -0.20624964	     11.14477095	      0.59110625	      0.01031675	      3.24103001	    -23.49135299	     -7.49999987	    -19.09335955	      1.91594894	      5.44568792	     11.82822236	     -2.26235407	     12.94287435	     24.10371691	     90.40261726	     10.94127504	     -1.95418046	     23.75313569	     21.67859798	     67.42519522
      1.57500000	      3.50421668	     -2.31586631	     -3.84092664	     -0.95220148	      1.26459630	     -0.11705568	     -0.59638733	     -1.49227660	      7.42310271	     11.37172514	      0.19847405	      0.27665511	    -22.54653055	     -7.49999987	     -8.67441415	     -0.29460260	     11.21797691	      0.55771368	      0.00973394	      3.23820466	    -23.09066686	     -7.49999987	    -19.53683059	      2.07259285	      5.18372994	     12.04343681	     -2.24580483	     13.07377130	     23.91759219	     90.35333877	     11.13692898	     -2.01029831	     24.23610617	     21.64072923	     68.74594023
      1.57916670	      3.72431249	     -2.33061914	     -3.77053591	     -0.95230019	      1.25684284	     -0.11702996	     -0.95765222	     -1.49034725	      7.42498423	     11.09121375	      0.19357820	      0.05420862	    -22.78648071	     -7.49999987	     -8.90914357	     -0.31132545	     11.16662933	      0.55780413	      0.00973552	      3.32899630	    -22.98395563	     -7.49999987	    -19.81107584	      2.09142770	      5.02261955	     12.13028835	     -2.24647540	     13.79791998	     23.84557780	     88.73170471	     11.24216263	     -2.09497111	     24.68808204	     21.78462449	     68.47578611
      1.58333330	      3.78082447	     -2.32535465	     -3.72338634	     -0.95283014	      1.25648383	     -0.11718272	     -1.06333514	     -1.48602526	      7.30119707	     10.91290837	      0.19046618	      0.17356792	    -22.60036770	     -7.49999987	     -8.94617380	     -0.32305044	     11.26593539	      0.56049256	      0.00978244	      3.35358107	    -23.04298161	     -7.49999987	    -19.92754973	      2.08205577	      4.94431057	     12.19947770	     -2.24481168	     13.93039326	     23.91656015	     87.53610183	     11.34799618	     -2.12471157	     24.89301745	     21.92932069	     68.37510525
